<svg width="811" height="384" viewBox="0 0 811 384" fill="none" xmlns="http://www.w3.org/2000/svg">
<g clip-path="url(#clip0_1157_576)">
<path d="M761.943 276.463C747.287 276.463 735.433 273.158 726.38 266.548C717.4 259.867 711.94 250.455 710 238.314L739.959 233.788C741.18 239.248 743.874 243.522 748.041 246.612C752.28 249.701 757.632 251.246 764.098 251.246C769.415 251.246 773.51 250.24 776.384 248.228C779.257 246.145 780.694 243.271 780.694 239.607C780.694 237.308 780.12 235.476 778.97 234.111C777.82 232.674 775.234 231.273 771.211 229.908C767.259 228.543 761.081 226.747 752.675 224.52C743.192 222.077 735.612 219.347 729.937 216.329C724.261 213.312 720.166 209.72 717.651 205.553C715.137 201.314 713.88 196.213 713.88 190.25C713.88 182.778 715.783 176.313 719.591 170.852C723.399 165.32 728.751 161.082 735.648 158.136C742.617 155.119 750.807 153.61 760.219 153.61C769.343 153.61 777.425 155.011 784.466 157.813C791.507 160.615 797.182 164.602 801.493 169.775C805.876 174.947 808.57 181.054 809.575 188.095L779.617 193.483C779.114 189.173 777.246 185.76 774.013 183.245C770.78 180.731 766.397 179.258 760.865 178.827C755.477 178.468 751.131 179.186 747.826 180.982C744.593 182.778 742.976 185.365 742.976 188.741C742.976 190.753 743.659 192.441 745.024 193.806C746.461 195.171 749.37 196.572 753.753 198.009C758.207 199.446 764.96 201.314 774.013 203.613C782.85 205.912 789.926 208.606 795.243 211.696C800.631 214.713 804.546 218.377 806.989 222.688C809.432 226.926 810.653 232.063 810.653 238.098C810.653 250.024 806.343 259.4 797.721 266.225C789.1 273.05 777.174 276.463 761.943 276.463Z" fill="#394F95"/>
<path d="M635.667 276.463C624.963 276.463 615.587 273.769 607.54 268.381C599.494 262.993 593.208 255.665 588.681 246.397C584.227 237.129 582 226.676 582 215.037C582 203.183 584.263 192.658 588.789 183.462C593.387 174.194 599.817 166.902 608.079 161.585C616.341 156.269 626.04 153.611 637.176 153.611C648.24 153.611 657.544 156.305 665.087 161.693C672.631 167.081 678.342 174.409 682.222 183.677C686.102 192.945 688.041 203.398 688.041 215.037C688.041 226.676 686.066 237.129 682.114 246.397C678.235 255.665 672.415 262.993 664.656 268.381C656.897 273.769 647.234 276.463 635.667 276.463ZM640.409 250.384C646.947 250.384 652.155 248.911 656.035 245.966C659.986 243.02 662.824 238.889 664.548 233.573C666.273 228.256 667.135 222.078 667.135 215.037C667.135 207.996 666.273 201.818 664.548 196.501C662.824 191.185 660.058 187.054 656.251 184.108C652.515 181.163 647.593 179.69 641.487 179.69C634.949 179.69 629.561 181.306 625.322 184.539C621.155 187.7 618.066 191.975 616.054 197.363C614.042 202.68 613.037 208.571 613.037 215.037C613.037 221.575 614.006 227.538 615.946 232.926C617.886 238.243 620.868 242.481 624.891 245.642C628.914 248.804 634.087 250.384 640.409 250.384ZM667.135 273.23V193.484H663.471V118.048H692.999V273.23H667.135Z" fill="#394F95"/>
<path d="M540.531 273.231V218.271C540.531 215.613 540.387 212.236 540.1 208.141C539.813 203.974 538.915 199.807 537.406 195.64C535.897 191.473 533.419 187.989 529.97 185.187C526.593 182.385 521.78 180.984 515.529 180.984C513.015 180.984 510.321 181.379 507.447 182.169C504.573 182.96 501.879 184.504 499.365 186.803C496.85 189.031 494.767 192.335 493.114 196.718C491.534 201.1 490.743 206.92 490.743 214.176L473.932 206.201C473.932 197.005 475.8 188.384 479.536 180.337C483.272 172.291 488.875 165.789 496.347 160.832C503.891 155.875 513.374 153.396 524.797 153.396C533.921 153.396 541.357 154.941 547.105 158.03C552.852 161.119 557.307 165.035 560.468 169.776C563.701 174.518 566 179.475 567.365 184.648C568.73 189.749 569.556 194.419 569.843 198.658C570.131 202.896 570.274 205.986 570.274 207.925V273.231H540.531ZM461 273.231V156.845H487.079V195.425H490.743V273.231H461Z" fill="#394F95"/>
<path d="M407 140.679V114.815H436.312V140.679H407ZM407 273.231V156.844H436.312V273.231H407Z" fill="#394F95"/>
<path d="M193.078 273.23L235.584 118.048H261.879L291.923 221.072L321.966 118.048H348.261L390.767 273.23H357.019L333.64 193.304L311.972 273.23H269.747L248.08 193.304L226.827 273.23H193.078Z" fill="#394F95"/>
<path d="M63.419 0.956078C75.8879 -0.0780173 82.0092 13.0598 74.1836 19.6524C79.0243 23.9205 83.7587 28.3087 88.3819 32.8115C106.011 24.5834 116.106 20.1857 136.552 21.5303C173.512 23.961 201.611 57.1455 198.422 94.0781C196.519 115.948 185.895 136.132 168.945 150.079C152.206 164.085 130.602 170.891 108.86 169.008C89.3509 167.235 74.2244 157.963 61.9024 143.202C49.3837 127.131 47.6973 111.265 48.5284 91.7783C43.4233 89.1556 35.9101 83.8856 30.7286 80.5967C27.7808 86.8173 22.6004 91.1578 15.5762 88.3233C-2.83329 80.8945 21.5719 52.048 31.8155 74.3565C38.0798 73.1166 44.3213 71.7572 50.5342 70.2803C47.5635 65.0051 42.2375 58.4388 38.4434 53.4922C33.3217 46.8135 28.2669 40.0829 23.2803 33.3028C20.2606 36.3095 17.6247 38.1841 13.17 38.3428C9.87312 38.4593 6.66491 37.2592 4.25298 35.0078C1.74711 32.6271 0.29326 29.3455 0.212945 25.8897C-0.267508 9.40857 28.6896 2.15774 27.9971 27.5C36.9377 30.0152 59.2795 41.9883 69.2217 46.3906C69.163 39.0193 68.9877 31.6491 68.6944 24.2832C58.7736 25.3977 50.2092 21.281 53.7813 9.08401C54.9405 5.12549 59.6352 2.41784 63.419 0.956078ZM136.514 121.978C129.775 123.244 126.941 126.247 125.391 132.967C126.967 139.093 128.268 141.492 135.063 142.171C141.383 141.392 146.585 136.918 145.483 130.132C145.078 127.644 143.681 125.426 141.613 123.985C140.196 122.98 138.24 122.212 136.514 121.978ZM110.268 126.548C107.828 121.81 103.509 121.048 98.6778 121.468C86.2715 128.354 90.1882 143.73 103.689 140.799C106.957 139.17 109.446 137.485 110.733 133.826C111.596 131.441 111.428 128.804 110.268 126.548Z" fill="#394F95"/>
<path d="M792.834 367.363C788.356 367.363 784.679 366.389 781.802 364.44C778.948 362.468 777.196 359.719 776.547 356.192L782.881 355.183C783.391 357.225 784.563 358.849 786.396 360.055C788.228 361.238 790.502 361.83 793.216 361.83C795.792 361.83 797.81 361.296 799.272 360.229C800.733 359.162 801.464 357.712 801.464 355.879C801.464 354.812 801.221 353.953 800.733 353.304C800.246 352.631 799.237 352.005 797.706 351.425C796.198 350.844 793.913 350.148 790.85 349.336C787.532 348.455 784.922 347.538 783.02 346.587C781.117 345.636 779.76 344.534 778.948 343.281C778.136 342.028 777.73 340.509 777.73 338.722C777.73 336.518 778.333 334.592 779.54 332.945C780.746 331.275 782.428 329.987 784.586 329.082C786.767 328.178 789.296 327.725 792.172 327.725C795.026 327.725 797.578 328.178 799.829 329.082C802.079 329.987 803.889 331.275 805.258 332.945C806.65 334.592 807.473 336.518 807.728 338.722L801.395 339.871C801.093 337.852 800.119 336.263 798.471 335.103C796.847 333.943 794.748 333.328 792.172 333.258C789.736 333.166 787.753 333.595 786.222 334.546C784.713 335.497 783.959 336.785 783.959 338.409C783.959 339.314 784.238 340.091 784.795 340.741C785.375 341.39 786.43 342.005 787.962 342.585C789.516 343.165 791.766 343.826 794.713 344.569C798.031 345.404 800.641 346.32 802.543 347.318C804.469 348.292 805.838 349.452 806.65 350.798C807.462 352.121 807.868 353.756 807.868 355.705C807.868 359.324 806.534 362.178 803.866 364.266C801.197 366.331 797.52 367.363 792.834 367.363Z" fill="#394F95"/>
<path d="M751.601 367.399C748.098 367.399 745.094 366.529 742.588 364.788C740.082 363.025 738.145 360.647 736.776 357.654C735.431 354.661 734.758 351.286 734.758 347.527C734.758 343.769 735.431 340.393 736.776 337.4C738.145 334.407 740.082 332.052 742.588 330.336C745.094 328.596 748.087 327.726 751.567 327.726C755.116 327.726 758.098 328.584 760.51 330.301C762.923 332.018 764.745 334.372 765.974 337.365C767.227 340.358 767.853 343.746 767.853 347.527C767.853 351.263 767.227 354.638 765.974 357.654C764.745 360.647 762.923 363.025 760.51 364.788C758.098 366.529 755.128 367.399 751.601 367.399ZM752.367 361.726C754.896 361.726 756.972 361.123 758.596 359.916C760.22 358.687 761.415 357.005 762.181 354.87C762.97 352.713 763.364 350.265 763.364 347.527C763.364 344.743 762.97 342.295 762.181 340.184C761.415 338.05 760.232 336.391 758.631 335.208C757.03 334.001 755 333.398 752.541 333.398C749.989 333.398 747.878 334.024 746.207 335.277C744.56 336.53 743.33 338.224 742.518 340.358C741.73 342.493 741.335 344.882 741.335 347.527C741.335 350.195 741.741 352.608 742.553 354.766C743.365 356.9 744.583 358.594 746.207 359.847C747.855 361.1 749.908 361.726 752.367 361.726ZM763.364 366.355V338.688H762.668V316.241H768.898V366.355H763.364Z" fill="#394F95"/>
<path d="M721.875 366.355V347.528C721.875 345.741 721.712 344.024 721.388 342.377C721.086 340.73 720.541 339.257 719.752 337.957C718.986 336.635 717.942 335.591 716.62 334.825C715.321 334.06 713.673 333.677 711.678 333.677C710.124 333.677 708.708 333.944 707.432 334.477C706.18 334.988 705.101 335.776 704.196 336.844C703.291 337.911 702.583 339.257 702.073 340.881C701.586 342.481 701.342 344.372 701.342 346.553L697.271 345.3C697.271 341.658 697.92 338.537 699.219 335.939C700.542 333.317 702.386 331.31 704.753 329.918C707.142 328.503 709.95 327.795 713.175 327.795C715.611 327.795 717.687 328.178 719.404 328.944C721.121 329.709 722.548 330.73 723.684 332.006C724.821 333.259 725.714 334.674 726.364 336.252C727.014 337.806 727.466 339.396 727.721 341.02C728 342.621 728.139 344.14 728.139 345.579V366.355H721.875ZM695.078 366.355V328.77H700.646V338.827H701.342V366.355H695.078Z" fill="#394F95"/>
<path d="M666.639 367.398C663.832 367.398 661.477 366.888 659.575 365.867C657.695 364.823 656.268 363.454 655.294 361.76C654.343 360.067 653.867 358.211 653.867 356.192C653.867 354.22 654.238 352.515 654.981 351.077C655.746 349.615 656.814 348.408 658.182 347.457C659.551 346.483 661.187 345.717 663.089 345.16C664.876 344.673 666.871 344.256 669.075 343.908C671.302 343.536 673.553 343.2 675.827 342.898C678.1 342.597 680.223 342.307 682.195 342.028L679.968 343.316C680.037 339.975 679.365 337.504 677.949 335.903C676.557 334.302 674.144 333.502 670.711 333.502C668.437 333.502 666.442 334.024 664.725 335.068C663.031 336.089 661.837 337.759 661.141 340.079L655.259 338.305C656.164 335.01 657.916 332.423 660.514 330.544C663.113 328.665 666.535 327.725 670.78 327.725C674.191 327.725 677.114 328.34 679.55 329.57C682.01 330.776 683.773 332.609 684.84 335.068C685.374 336.228 685.71 337.493 685.849 338.861C685.988 340.207 686.058 341.622 686.058 343.107V366.354H680.559V357.341L681.847 358.176C680.432 361.215 678.448 363.512 675.896 365.066C673.367 366.621 670.282 367.398 666.639 367.398ZM667.579 362.213C669.806 362.213 671.732 361.818 673.356 361.03C675.003 360.218 676.325 359.162 677.323 357.863C678.321 356.54 678.97 355.102 679.272 353.547C679.62 352.387 679.805 351.1 679.829 349.684C679.875 348.246 679.898 347.144 679.898 346.378L682.056 347.318C680.037 347.596 678.054 347.863 676.105 348.118C674.156 348.374 672.312 348.652 670.572 348.954C668.832 349.232 667.266 349.568 665.874 349.963C664.853 350.288 663.89 350.705 662.985 351.216C662.103 351.726 661.384 352.387 660.827 353.199C660.294 353.988 660.027 354.974 660.027 356.157C660.027 357.178 660.282 358.153 660.793 359.081C661.326 360.009 662.138 360.763 663.229 361.343C664.342 361.923 665.792 362.213 667.579 362.213Z" fill="#394F95"/>
<path d="M631.211 366.355V328.77H636.744V337.853L635.839 336.67C636.28 335.51 636.849 334.443 637.545 333.468C638.264 332.494 639.064 331.693 639.946 331.067C640.92 330.278 642.022 329.675 643.252 329.257C644.482 328.84 645.735 328.596 647.011 328.526C648.287 328.434 649.481 328.515 650.595 328.77V334.582C649.296 334.234 647.869 334.141 646.315 334.303C644.76 334.466 643.322 335.034 641.999 336.009C640.793 336.867 639.853 337.911 639.18 339.141C638.531 340.37 638.078 341.704 637.823 343.143C637.568 344.558 637.44 346.008 637.44 347.493V366.355H631.211Z" fill="#394F95"/>
<path d="M588.125 366.355V316.241H607.648C610.641 316.241 613.193 316.856 615.305 318.086C617.439 319.315 619.063 320.939 620.177 322.958C621.313 324.953 621.882 327.111 621.882 329.431C621.882 332.145 621.186 334.523 619.794 336.565C618.402 338.607 616.523 340.01 614.156 340.776L614.086 339.071C617.311 339.929 619.817 341.507 621.603 343.804C623.39 346.1 624.283 348.838 624.283 352.017C624.283 354.94 623.68 357.469 622.474 359.603C621.29 361.738 619.573 363.396 617.323 364.58C615.096 365.763 612.451 366.355 609.388 366.355H588.125ZM594.389 360.438H608.205C610.061 360.438 611.72 360.102 613.182 359.429C614.643 358.733 615.792 357.759 616.627 356.506C617.485 355.253 617.915 353.745 617.915 351.982C617.915 350.288 617.532 348.768 616.766 347.423C616.024 346.077 614.968 345.01 613.599 344.221C612.254 343.409 610.688 343.003 608.901 343.003H594.389V360.438ZM594.389 337.157H607.579C609.064 337.157 610.398 336.843 611.581 336.217C612.787 335.567 613.738 334.662 614.434 333.502C615.154 332.342 615.513 330.985 615.513 329.431C615.513 327.273 614.782 325.51 613.321 324.141C611.859 322.772 609.945 322.088 607.579 322.088H594.389V337.157Z" fill="#394F95"/>
<path d="M545.717 367.398C542.91 367.398 540.555 366.888 538.653 365.867C536.773 364.823 535.347 363.454 534.372 361.76C533.421 360.067 532.945 358.211 532.945 356.192C532.945 354.22 533.316 352.515 534.059 351.077C534.825 349.615 535.892 348.408 537.261 347.457C538.629 346.483 540.265 345.717 542.168 345.16C543.954 344.673 545.949 344.256 548.153 343.908C550.381 343.536 552.631 343.2 554.905 342.898C557.178 342.597 559.301 342.307 561.273 342.028L559.046 343.316C559.116 339.975 558.443 337.504 557.028 335.903C555.635 334.302 553.223 333.502 549.789 333.502C547.515 333.502 545.52 334.024 543.803 335.068C542.11 336.089 540.915 337.759 540.219 340.079L534.337 338.305C535.242 335.01 536.994 332.423 539.592 330.544C542.191 328.665 545.613 327.725 549.859 327.725C553.269 327.725 556.192 328.34 558.628 329.57C561.088 330.776 562.851 332.609 563.918 335.068C564.452 336.228 564.788 337.493 564.927 338.861C565.067 340.207 565.136 341.622 565.136 343.107V366.354H559.638V357.341L560.925 358.176C559.51 361.215 557.526 363.512 554.974 365.066C552.445 366.621 549.36 367.398 545.717 367.398ZM546.657 362.213C548.884 362.213 550.81 361.818 552.434 361.03C554.081 360.218 555.403 359.162 556.401 357.863C557.399 356.54 558.048 355.102 558.35 353.547C558.698 352.387 558.884 351.1 558.907 349.684C558.953 348.246 558.976 347.144 558.976 346.378L561.134 347.318C559.116 347.596 557.132 347.863 555.183 348.118C553.234 348.374 551.39 348.652 549.65 348.954C547.91 349.232 546.344 349.568 544.952 349.963C543.931 350.288 542.968 350.705 542.063 351.216C541.182 351.726 540.462 352.387 539.905 353.199C539.372 353.988 539.105 354.974 539.105 356.157C539.105 357.178 539.36 358.153 539.871 359.081C540.404 360.009 541.216 360.763 542.307 361.343C543.42 361.923 544.87 362.213 546.657 362.213Z" fill="#394F95"/>
<path d="M512.196 367.398C508.391 367.398 505.155 366.551 502.486 364.858C499.842 363.141 497.823 360.786 496.431 357.793C495.039 354.8 494.32 351.39 494.273 347.562C494.32 343.641 495.051 340.195 496.466 337.226C497.904 334.233 499.958 331.901 502.626 330.231C505.294 328.56 508.507 327.725 512.265 327.725C516.233 327.725 519.643 328.7 522.497 330.648C525.374 332.597 527.3 335.265 528.274 338.653L522.149 340.497C521.36 338.316 520.072 336.623 518.286 335.416C516.523 334.21 514.493 333.606 512.196 333.606C509.621 333.606 507.498 334.21 505.827 335.416C504.157 336.599 502.916 338.247 502.104 340.358C501.292 342.446 500.874 344.847 500.851 347.562C500.897 351.738 501.86 355.113 503.739 357.689C505.642 360.241 508.461 361.517 512.196 361.517C514.655 361.517 516.697 360.96 518.321 359.846C519.945 358.709 521.175 357.074 522.01 354.939L528.274 356.575C526.975 360.078 524.945 362.758 522.184 364.614C519.423 366.47 516.094 367.398 512.196 367.398Z" fill="#394F95"/>
<path d="M470.565 367.398C466.83 367.398 463.605 366.551 460.891 364.858C458.199 363.164 456.123 360.821 454.661 357.828C453.2 354.835 452.469 351.401 452.469 347.527C452.469 343.583 453.211 340.126 454.696 337.156C456.181 334.186 458.28 331.878 460.995 330.231C463.709 328.56 466.9 327.725 470.565 327.725C474.324 327.725 477.56 328.572 480.275 330.266C482.989 331.936 485.066 334.268 486.504 337.261C487.966 340.23 488.696 343.652 488.696 347.527C488.696 351.448 487.966 354.905 486.504 357.897C485.042 360.867 482.954 363.199 480.24 364.892C477.525 366.563 474.3 367.398 470.565 367.398ZM470.565 361.517C474.463 361.517 477.363 360.218 479.265 357.619C481.168 355.021 482.119 351.657 482.119 347.527C482.119 343.281 481.156 339.905 479.231 337.4C477.305 334.871 474.417 333.606 470.565 333.606C467.944 333.606 465.786 334.198 464.092 335.381C462.399 336.565 461.134 338.2 460.299 340.288C459.464 342.376 459.046 344.789 459.046 347.527C459.046 351.749 460.021 355.137 461.969 357.689C463.918 360.241 466.784 361.517 470.565 361.517Z" fill="#394F95"/>
<path d="M439.603 366.355L439.638 342.307C439.638 339.5 438.884 337.308 437.376 335.73C435.891 334.129 433.954 333.329 431.564 333.329C430.172 333.329 428.85 333.654 427.597 334.303C426.344 334.93 425.323 335.927 424.535 337.296C423.746 338.642 423.351 340.37 423.351 342.481L420.08 341.159C420.034 338.491 420.579 336.159 421.716 334.164C422.876 332.146 424.453 330.579 426.449 329.466C428.444 328.352 430.694 327.795 433.2 327.795C437.121 327.795 440.207 328.99 442.457 331.38C444.708 333.746 445.833 336.936 445.833 340.95L445.798 366.355H439.603ZM394.641 366.355V328.77H400.174V338.827H400.87V366.355H394.641ZM417.157 366.355L417.192 342.551C417.192 339.674 416.449 337.424 414.964 335.8C413.479 334.152 411.507 333.329 409.048 333.329C406.612 333.329 404.64 334.164 403.132 335.834C401.624 337.505 400.87 339.721 400.87 342.481L397.599 340.533C397.599 338.096 398.179 335.916 399.339 333.99C400.499 332.064 402.076 330.556 404.072 329.466C406.067 328.352 408.329 327.795 410.858 327.795C413.387 327.795 415.591 328.329 417.47 329.396C419.349 330.463 420.799 331.995 421.82 333.99C422.841 335.962 423.351 338.317 423.351 341.055L423.317 366.355H417.157Z" fill="#394F95"/>
<path d="M378.039 322.122V315.719H384.234V322.122H378.039ZM378.039 366.354V328.769H384.234V366.354H378.039Z" fill="#394F95"/>
<path d="M362.035 366.355V347.528C362.035 345.741 361.873 344.024 361.548 342.377C361.246 340.73 360.701 339.257 359.912 337.957C359.146 336.635 358.102 335.591 356.78 334.825C355.481 334.06 353.834 333.677 351.838 333.677C350.284 333.677 348.869 333.944 347.593 334.477C346.34 334.988 345.261 335.776 344.356 336.844C343.451 337.911 342.744 339.257 342.233 340.881C341.746 342.481 341.502 344.372 341.502 346.553L337.431 345.3C337.431 341.658 338.08 338.537 339.38 335.939C340.702 333.317 342.546 331.31 344.913 329.918C347.303 328.503 350.11 327.795 353.335 327.795C355.771 327.795 357.847 328.178 359.564 328.944C361.281 329.709 362.708 330.73 363.845 332.006C364.981 333.259 365.875 334.674 366.524 336.252C367.174 337.806 367.626 339.396 367.882 341.02C368.16 342.621 368.299 344.14 368.299 345.579V366.355H362.035ZM335.238 366.355V328.77H340.806V338.827H341.502V366.355H335.238Z" fill="#394F95"/>
<path d="M286.863 366.355L303.637 316.241H312.268L329.042 366.355H322.604L306.909 319.861H308.857L293.301 366.355H286.863ZM294.937 354.627V348.815H320.968V354.627H294.937Z" fill="#394F95"/>
<path d="M244.177 383.058L251.451 363.292L251.555 369.138L235.129 328.769H241.637L254.513 361.238H252.286L264.362 328.769H270.661L250.198 383.058H244.177Z" fill="#394F95"/>
<path d="M195.867 366.355V316.241H215.39C218.383 316.241 220.935 316.856 223.047 318.086C225.181 319.315 226.805 320.939 227.919 322.958C229.056 324.953 229.624 327.111 229.624 329.431C229.624 332.145 228.928 334.523 227.536 336.565C226.144 338.607 224.265 340.01 221.898 340.776L221.829 339.071C225.054 339.929 227.559 341.507 229.346 343.804C231.132 346.1 232.025 348.838 232.025 352.017C232.025 354.94 231.422 357.469 230.216 359.603C229.032 361.738 227.316 363.396 225.065 364.58C222.838 365.763 220.193 366.355 217.131 366.355H195.867ZM202.131 360.438H215.947C217.803 360.438 219.462 360.102 220.924 359.429C222.385 358.733 223.534 357.759 224.369 356.506C225.228 355.253 225.657 353.745 225.657 351.982C225.657 350.288 225.274 348.768 224.508 347.423C223.766 346.077 222.71 345.01 221.341 344.221C219.996 343.409 218.43 343.003 216.643 343.003H202.131V360.438ZM202.131 337.157H215.321C216.806 337.157 218.14 336.843 219.323 336.217C220.529 335.567 221.481 334.662 222.177 333.502C222.896 332.342 223.255 330.985 223.255 329.431C223.255 327.273 222.525 325.51 221.063 324.141C219.601 322.772 217.687 322.088 215.321 322.088H202.131V337.157Z" fill="#394F95"/>
</g>
<defs>
<clipPath id="clip0_1157_576">
<rect width="811" height="384" fill="white"/>
</clipPath>
</defs>
</svg>
